<mxfile host="app.diagrams.net" modified="2024-04-18T22:53:20.101Z" agent="Mozilla/5.0 (Macintosh; Intel Mac OS X 10.15; rv:124.0) Gecko/20100101 Firefox/124.0" version="24.0.2" etag="xLi4LysAdV0SSlj3U48V" type="github">
  <diagram name="PÃ¡gina-1" id="ZZfyT50Ty6wZJ6VQVu-1">
    <mxGraphModel>
      <root>
        <mxCell id="0" />
        <mxCell id="1" parent="0" />
      </root>
    </mxGraphModel>
  </diagram>
</mxfile>
